<svg width="263" height="261" viewBox="0 0 263 261" fill="none" xmlns="http://www.w3.org/2000/svg">
<path d="M255.815 143.912C243.189 206.874 262.429 183.858 262.429 211.371C258.725 237.296 209.222 258.192 115.342 260.311C31.2174 254.227 -0.220581 225.392 0.00116393 211.106C0.325568 190.207 0.794798 177.509 1.32378 148.145C2.60798 76.8577 72.8791 0 144.178 0C215.476 0 275.392 46.2952 255.815 143.912Z" fill="#FCC21B"/>
<circle cx="105.025" cy="171.954" r="48.6761" stroke="#714B67" stroke-width="33.8617"/>
<path d="M189.15 211.812C189.15 229.019 169.453 247.084 152.408 247.084C135.363 247.084 120.369 228.432 120.369 211.224C120.369 194.016 136.832 178.303 153.878 178.303C170.923 178.303 189.15 194.604 189.15 211.812Z" fill="#EB8F00"/>
<path d="M82.2744 201.094C82.2744 218.042 68.7722 234.386 52.1163 234.386C35.4605 234.386 21.9583 220.647 21.9583 203.699C21.9583 186.751 35.4605 173.012 52.1163 173.012C68.7722 173.012 82.2744 184.145 82.2744 201.094Z" fill="#EB8F00"/>
<path d="M189.679 215.074C189.679 230.561 171.952 246.82 156.611 246.82C141.27 246.82 127.776 230.032 127.776 214.545C127.776 199.058 142.593 184.916 157.934 184.916C173.275 184.916 189.679 199.587 189.679 215.074Z" fill="#FCC21B"/>
<path d="M189.679 215.074C189.679 230.561 171.952 246.82 156.611 246.82C141.27 246.82 127.776 230.032 127.776 214.545C127.776 199.058 142.593 184.916 157.934 184.916C173.275 184.916 189.679 199.587 189.679 215.074Z" fill="#FCC21B"/>
<path d="M77.5126 203.964C77.5126 219.451 65.0763 234.386 49.7354 234.386C34.3946 234.386 21.9583 221.831 21.9583 206.344C21.9583 190.857 34.3946 178.303 49.7354 178.303C65.0763 178.303 77.5126 188.477 77.5126 203.964Z" fill="#FCC21B"/>
<path fill-rule="evenodd" clip-rule="evenodd" d="M115.13 116.796C109.768 123.835 101.112 129.075 93.2254 129.075C80.6436 129.075 69.5763 115.307 69.5763 102.605C69.5763 89.9035 81.7285 78.3051 94.3102 78.3051C103.863 78.3051 113.918 85.2409 118.206 94.1395C122.897 87.8567 130.437 83.5122 138.137 83.5122C150.719 83.5122 164.173 95.5446 164.173 108.246C164.173 120.948 149.634 134.282 137.052 134.282C127.442 134.282 118.716 126.25 115.13 116.796Z" fill="#FCC21B"/>
<path fill-rule="evenodd" clip-rule="evenodd" d="M115.13 116.796C109.768 123.835 101.112 129.075 93.2254 129.075C80.6436 129.075 69.5763 115.307 69.5763 102.605C69.5763 89.9035 81.7285 78.3051 94.3102 78.3051C103.863 78.3051 113.918 85.2409 118.206 94.1395C122.897 87.8567 130.437 83.5122 138.137 83.5122C150.719 83.5122 164.173 95.5446 164.173 108.246C164.173 120.948 149.634 134.282 137.052 134.282C127.442 134.282 118.716 126.25 115.13 116.796Z" fill="#FCC21B"/>
<ellipse cx="165.341" cy="79.3633" rx="17.989" ry="21.6926" fill="#422B0D"/>
<ellipse cx="80.6871" cy="70.3688" rx="17.989" ry="21.6926" fill="#422B0D"/>
<path d="M166.609 69.3803C168.985 71.7564 168.611 75.2348 166.234 77.611C163.858 79.9871 160.38 80.3612 158.004 77.9851C155.628 75.6089 155.628 71.7564 158.004 69.3803C160.38 67.0041 164.232 67.0041 166.609 69.3803Z" fill="#896024"/>
<path d="M79.838 60.3858C82.2141 62.7619 81.84 66.2403 79.4639 68.6165C77.0877 70.9926 73.6093 71.3667 71.2332 68.9906C68.857 66.6144 68.857 62.7619 71.2332 60.3858C73.6093 58.0096 77.4618 58.0096 79.838 60.3858Z" fill="#896024"/>
</svg>
