<svg width="263" height="261" viewBox="0 0 263 261" fill="none" xmlns="http://www.w3.org/2000/svg">
<path d="M255.815 143.912C243.189 206.874 262.429 183.858 262.429 211.371C258.725 237.296 209.222 258.192 115.342 260.311C31.2174 254.227 -0.220581 225.392 0.00116393 211.106C0.325568 190.207 0.794798 177.509 1.32378 148.145C2.60798 76.8577 72.8791 0 144.178 0C215.476 0 275.392 46.2952 255.815 143.912Z" fill="url(#paint0_linear_6_48)"/>
<circle cx="105.025" cy="171.954" r="50.6069" stroke="url(#paint1_radial_6_48)" stroke-width="30"/>
<path d="M189.15 211.812C189.15 229.019 169.453 247.084 152.408 247.084C135.363 247.084 120.369 228.432 120.369 211.224C120.369 194.016 136.832 178.303 153.878 178.303C170.923 178.303 189.15 194.604 189.15 211.812Z" fill="#EB8F00"/>
<path d="M82.2744 201.094C82.2744 218.042 68.7722 234.386 52.1164 234.386C35.4605 234.386 21.9583 220.647 21.9583 203.699C21.9583 186.751 35.4605 173.012 52.1164 173.012C68.7722 173.012 82.2744 184.145 82.2744 201.094Z" fill="#EB8F00"/>
<path d="M189.679 215.074C189.679 230.561 171.952 246.82 156.611 246.82C141.27 246.82 127.776 230.032 127.776 214.545C127.776 199.058 142.593 184.916 157.934 184.916C173.275 184.916 189.679 199.587 189.679 215.074Z" fill="url(#paint2_linear_6_48)"/>
<path d="M189.679 215.074C189.679 230.561 171.952 246.82 156.611 246.82C141.27 246.82 127.776 230.032 127.776 214.545C127.776 199.058 142.593 184.916 157.934 184.916C173.275 184.916 189.679 199.587 189.679 215.074Z" fill="url(#paint3_linear_6_48)"/>
<path d="M77.5126 203.964C77.5126 219.451 65.0764 234.386 49.7355 234.386C34.3946 234.386 21.9583 221.831 21.9583 206.344C21.9583 190.857 34.3946 178.303 49.7355 178.303C65.0764 178.303 77.5126 188.477 77.5126 203.964Z" fill="url(#paint4_linear_6_48)"/>
<g filter="url(#filter0_d_6_48)">
<path fill-rule="evenodd" clip-rule="evenodd" d="M115.13 116.796C109.768 123.835 101.112 129.075 93.2254 129.075C80.6436 129.075 69.5763 115.307 69.5763 102.605C69.5763 89.9035 81.7285 78.3051 94.3102 78.3051C103.863 78.3051 113.918 85.2409 118.206 94.1395C122.897 87.8567 130.437 83.5122 138.137 83.5122C150.719 83.5122 164.173 95.5446 164.173 108.246C164.173 120.948 149.634 134.282 137.052 134.282C127.442 134.282 118.716 126.25 115.13 116.796Z" fill="url(#paint5_linear_6_48)"/>
</g>
<ellipse cx="165.341" cy="79.3633" rx="17.989" ry="21.6926" transform="rotate(15 165.341 79.3633)" fill="#422B0D"/>
<ellipse cx="80.6871" cy="70.3688" rx="17.989" ry="21.6926" transform="rotate(15 80.6871 70.3688)" fill="#422B0D"/>
<path d="M169.149 70.0484C170.829 72.9586 169.568 76.2216 166.657 77.9018C163.747 79.582 160.291 79.0431 158.61 76.1329C156.93 73.2228 157.927 69.5015 160.838 67.8213C163.748 66.1411 167.469 67.1382 169.149 70.0484Z" fill="#896024"/>
<path d="M82.4507 60.5062C84.1309 63.4164 82.8693 66.6794 79.9591 68.3596C77.0489 70.0398 73.5922 69.5009 71.912 66.5907C70.2318 63.6805 71.2289 59.9593 74.1391 58.2791C77.0493 56.5989 80.7705 57.596 82.4507 60.5062Z" fill="#896024"/>
<defs>
<filter id="filter0_d_6_48" x="69.5763" y="78.3051" width="94.5964" height="62.9768" filterUnits="userSpaceOnUse" color-interpolation-filters="sRGB">
<feFlood flood-opacity="0" result="BackgroundImageFix"/>
<feColorMatrix in="SourceAlpha" type="matrix" values="0 0 0 0 0 0 0 0 0 0 0 0 0 0 0 0 0 0 127 0" result="hardAlpha"/>
<feOffset dy="7"/>
<feComposite in2="hardAlpha" operator="out"/>
<feColorMatrix type="matrix" values="0 0 0 0 0 0 0 0 0 0 0 0 0 0 0 0 0 0 0.25 0"/>
<feBlend mode="normal" in2="BackgroundImageFix" result="effect1_dropShadow_6_48"/>
<feBlend mode="normal" in="SourceGraphic" in2="effect1_dropShadow_6_48" result="shape"/>
</filter>
<linearGradient id="paint0_linear_6_48" x1="131.214" y1="0" x2="131.214" y2="260.311" gradientUnits="userSpaceOnUse">
<stop stop-color="#FCC21B"/>
<stop offset="1" stop-color="#FCA21B"/>
</linearGradient>
<radialGradient id="paint1_radial_6_48" cx="0" cy="0" r="1" gradientUnits="userSpaceOnUse" gradientTransform="translate(-1.5 35) rotate(51.4347) scale(236.604)">
<stop stop-color="#443F7D"/>
<stop offset="1" stop-color="#733D65"/>
</radialGradient>
<linearGradient id="paint2_linear_6_48" x1="158.728" y1="184.916" x2="158.728" y2="246.82" gradientUnits="userSpaceOnUse">
<stop stop-color="#FCC21B"/>
<stop offset="1" stop-color="#FCA21B"/>
</linearGradient>
<linearGradient id="paint3_linear_6_48" x1="158.728" y1="184.916" x2="158.728" y2="246.82" gradientUnits="userSpaceOnUse">
<stop stop-color="#FCC21B"/>
<stop offset="1" stop-color="#FCA21B"/>
</linearGradient>
<linearGradient id="paint4_linear_6_48" x1="49.7355" y1="178.303" x2="49.7355" y2="234.386" gradientUnits="userSpaceOnUse">
<stop stop-color="#FCC21B"/>
<stop offset="1" stop-color="#FCA21B"/>
</linearGradient>
<linearGradient id="paint5_linear_6_48" x1="116.874" y1="78.3051" x2="116.874" y2="134.282" gradientUnits="userSpaceOnUse">
<stop stop-color="#FCB81B"/>
<stop offset="1" stop-color="#FCA21B"/>
</linearGradient>
</defs>
</svg>
